<svg xmlns="http://www.w3.org/2000/svg" version="1.1" viewBox="0 0 512 512"><path d="M0 0 C8.51116424 -0.06995564 17.02220546 -0.12303991 25.53358746 -0.15543652 C29.48709562 -0.17099657 33.44040501 -0.19205465 37.39379883 -0.22631836 C41.21935247 -0.25926113 45.04471668 -0.27692534 48.87040138 -0.28463173 C50.31942534 -0.29011337 51.76844064 -0.30081465 53.21738243 -0.31719017 C71.07747786 -0.51074587 85.34481 2.96429232 98.54296875 15.4765625 C106.60930891 23.76091186 113.20687347 32.96962148 119.7890625 42.4296875 C123.15014112 47.24521923 126.62871062 51.96961554 130.125 56.6875 C134.54984555 62.66484929 138.93566428 68.66439863 143.24487305 74.72558594 C148.24826577 81.76310151 153.30543392 88.76155662 158.37304688 95.75292969 C159.45678735 97.24974051 160.53882284 98.7477873 161.61914062 100.24707031 C163.13807266 102.35503332 164.66215101 104.45917777 166.1875 106.5625 C166.64503662 107.19986084 167.10257324 107.83722168 167.57397461 108.49389648 C169.83115895 111.74883038 169.83115895 111.74883038 173 114 C173.27223389 113.42145264 173.54446777 112.84290527 173.82495117 112.24682617 C174.99602471 110.0076012 176.29902019 108.08084434 177.80078125 106.05078125 C178.35878418 105.2942627 178.91678711 104.53774414 179.49169922 103.75830078 C180.39299561 102.54762939 180.39299561 102.54762939 181.3125 101.3125 C181.93914551 100.46671387 182.56579102 99.62092773 183.21142578 98.74951172 C188.81883176 91.20102634 194.52259646 83.72838347 200.25341797 76.2734375 C208.76712541 65.19157509 217.24000523 54.08518736 225.5 42.8125 C253.90626145 4.09922848 253.90626145 4.09922848 277 0 C282.42752327 -0.3797918 287.82992649 -0.35231944 293.265625 -0.29296875 C294.79546691 -0.28735866 296.3253143 -0.28309526 297.85516357 -0.28010559 C301.84018395 -0.26876781 305.82486511 -0.23939918 309.80975342 -0.20599365 C313.89265355 -0.17505099 317.97560963 -0.16154908 322.05859375 -0.14648438 C330.03921646 -0.11451617 338.01956578 -0.06345783 346 0 C345.0675051 1.41472919 344.13282691 2.8280194 343.19726562 4.24072266 C342.67700806 5.0279068 342.15675049 5.81509094 341.62072754 6.62612915 C339.08268417 10.34358753 336.29727596 13.85100822 333.5 17.375 C328.5990042 23.61103174 323.80635935 29.90998382 319.125 36.3125 C313.51753445 43.97669395 307.80043982 51.54959768 302.03173828 59.09301758 C297.48807233 65.03763809 292.98080849 71.00787797 288.5 77 C283.3517673 83.88465902 278.15956473 90.73369442 272.9375 97.5625 C267.82976365 104.24445834 262.78511366 110.96689124 257.8125 117.75 C253.472628 123.66911505 249.09126447 129.55057323 244.625 135.375 C244.10663574 136.05127441 243.58827148 136.72754883 243.05419922 137.42431641 C240.68668926 140.50920997 238.31544088 143.59117546 235.93994141 146.66992188 C233.76872187 149.48542455 231.60294609 152.30505557 229.4375 155.125 C228.41873779 156.44056885 228.41873779 156.44056885 227.37939453 157.78271484 C223.8623317 162.36945902 220.71787119 166.89621135 218 172 C226.33504659 183.59321588 234.74835096 195.125425 243.23388672 206.60888672 C246.15956103 210.56991162 249.07950306 214.53515717 252 218.5 C253.1666389 220.08335379 254.33330558 221.66668712 255.5 223.25 C290.5 270.75 325.5 318.25 360.5 365.75 C361.07758057 366.53383057 361.65516113 367.31766113 362.25024414 368.12524414 C363.41620806 369.70768185 364.58206104 371.29020131 365.74780273 372.87280273 C368.67431443 376.84551887 371.60277534 380.81676994 374.53515625 384.78515625 C380.27423642 392.55600091 385.98413928 400.34499834 391.625 408.1875 C396.15111241 414.47777532 400.74982873 420.7064374 405.4128418 426.89575195 C413.94805014 438.22998399 422.3390516 449.66998198 430.625 461.1875 C434.67351341 466.81388619 438.76770188 472.40037346 442.9375 477.9375 C447.47507714 483.96679992 452.00255434 490.00317255 456.5 496.0625 C457.08773193 496.84810303 457.67546387 497.63370605 458.28100586 498.44311523 C458.83796143 499.19536377 459.39491699 499.9476123 459.96875 500.72265625 C460.45794922 501.38015869 460.94714844 502.03766113 461.45117188 502.71508789 C463.48570982 505.71654449 465.22810772 508.83635036 467 512 C458.13226545 512.09336407 449.26470439 512.16409728 440.3965826 512.20724869 C436.27714916 512.22797659 432.15805603 512.25601712 428.03881836 512.30175781 C424.05114542 512.34575207 420.06379633 512.3692478 416.07589912 512.37950897 C414.56710282 512.38680565 413.05832087 512.40104886 411.54966545 512.42292023 C393.68197387 512.67125672 378.72634744 508.93945496 365.390625 496.421875 C357.09630617 488.0191337 350.56186632 477.95398305 343.70556641 468.37890625 C340.98078794 464.57841364 338.23985565 460.78962941 335.5 457 C334.4165834 455.50006014 333.3332502 454.00006003 332.25 452.5 C331.445625 451.38625 331.445625 451.38625 330.625 450.25 C325.75 443.5 325.75 443.5 324.12524414 441.25024414 C323.04121584 439.7493445 321.95706858 438.24853078 320.87280273 436.74780273 C318.17412345 433.01226033 315.47748688 429.27527746 312.78515625 425.53515625 C307.17096822 417.74084153 301.52114617 409.975464 295.8125 402.25 C290.99605784 395.73131921 286.23977065 389.1755172 281.54296875 382.5703125 C274.0657213 372.05774678 266.47881132 361.62531786 258.8125 351.25 C253.99714943 344.73275702 249.24135556 338.17886726 244.546875 331.57421875 C239.96009787 325.12474489 235.30666647 318.72292607 230.66894531 312.31005859 C229.03481701 310.04819171 227.4036287 307.78423692 225.7734375 305.51953125 C220.22450027 297.8146913 214.64176126 290.1371894 209 282.5 C202.8229266 274.13816452 196.72154379 265.72416542 190.6484375 257.28662109 C188.91519719 254.88236625 187.17694348 252.48180151 185.4375 250.08203125 C184.85170166 249.2732251 184.26590332 248.46441895 183.66235352 247.63110352 C182.54645715 246.09064531 181.42980807 244.55073197 180.31225586 243.01147461 C178.04496076 239.87866206 175.8253498 236.75055155 173.75390625 233.484375 C173.17511719 232.66453125 172.59632813 231.8446875 172 231 C171.34 231 170.68 231 170 231 C168.61839505 232.5112977 168.61839505 232.5112977 167.234375 234.5234375 C166.68136719 235.28785156 166.12835938 236.05226562 165.55859375 236.83984375 C164.66333984 238.09474609 164.66333984 238.09474609 163.75 239.375 C158.94514835 246.01027133 154.06523963 252.56122117 149 259 C143.66441443 265.80149569 138.49403126 272.70663969 133.390625 279.68359375 C128.34261707 286.57132013 123.17073839 293.35942474 117.97900391 300.13916016 C113.41822688 306.10683221 108.93724573 312.12753133 104.5 318.1875 C100.30449023 323.9133224 96.08712157 329.58953595 91.578125 335.07421875 C90.23111275 336.7179738 88.95164603 338.41669455 87.6875 340.125 C77.33101004 351.20403577 62.57893714 358.14970116 47.46472168 359.25961304 C43.58350346 359.34449509 39.70937494 359.33881412 35.828125 359.29296875 C34.41038467 359.28735714 32.99263842 359.28309447 31.57489014 359.28010559 C27.88577543 359.26877963 24.19702841 359.23942207 20.50805664 359.20599365 C16.72677582 359.17502468 12.94543422 359.1615436 9.1640625 359.14648438 C1.77587602 359.11453721 -5.61201002 359.06349429 -13 359 C-11.62514593 356.18952068 -10.16639749 353.70942753 -8.3046875 351.19140625 C-7.76199219 350.45535156 -7.21929687 349.71929687 -6.66015625 348.9609375 C-6.07105469 348.16945313 -5.48195313 347.37796875 -4.875 346.5625 C-4.25753906 345.72847656 -3.64007813 344.89445312 -3.00390625 344.03515625 C2.27863897 336.92118754 7.65058169 329.87657862 13.03564453 322.84008789 C17.41865249 317.10395425 21.73437041 311.32385044 26 305.5 C31.5866242 297.87259983 37.29276338 290.34355435 43.0390625 282.8359375 C47.42064326 277.10097273 51.73542958 271.32240437 56 265.5 C61.5866242 257.87259983 67.29276338 250.34355435 73.0390625 242.8359375 C77.42064326 237.10097273 81.73542958 231.32240437 86 225.5 C90.92565227 218.7750227 95.93377025 212.11969533 101 205.5 C106.32381346 198.53863711 111.60427081 191.54836064 116.8125 184.5 C117.68358398 183.3253418 117.68358398 183.3253418 118.57226562 182.12695312 C121.23535952 178.50934528 123.78495693 174.9171288 126 171 C125.29617187 170.06542969 124.59234375 169.13085938 123.8671875 168.16796875 C118.20587168 160.64028508 112.57886551 153.08902325 107 145.5 C102.69544056 139.64464563 98.36963565 133.80695816 94 128 C89.67649884 122.25237992 85.38903772 116.4793765 81.125 110.6875 C80.24497314 109.49229736 80.24497314 109.49229736 79.34716797 108.27294922 C76.41474278 104.28789972 73.48647219 100.29984916 70.5625 96.30859375 C63.70164781 86.95519298 56.73320964 77.6942387 49.68017578 68.48486328 C45.63485215 63.18846947 41.69593368 57.83897706 37.86621094 52.38549805 C34.04764616 46.98588294 30.0231464 41.74810719 26 36.5 C20.60115055 29.45512924 15.3052103 22.36231756 10.1953125 15.10546875 C7.31700389 11.03384002 4.36109099 7.02242555 1.3984375 3.01171875 C0 1 0 1 0 0 Z " fill="#C8001C" transform="translate(29,0)"/></svg>